<?xml version="1.0" encoding="UTF-8" standalone="no"?>
<svg
   xmlns:dc="http://purl.org/dc/elements/1.1/"
   xmlns:cc="http://creativecommons.org/ns#"
   xmlns:rdf="http://www.w3.org/1999/02/22-rdf-syntax-ns#"
   xmlns:svg="http://www.w3.org/2000/svg"
   xmlns="http://www.w3.org/2000/svg"
   xmlns:sodipodi="http://sodipodi.sourceforge.net/DTD/sodipodi-0.dtd"
   xmlns:inkscape="http://www.inkscape.org/namespaces/inkscape"
   id="Capa_1"
   enable-background="new 0 0 512 512"
   height="512"
   viewBox="0 0 512 512"
   width="512"
   version="1.1"
   sodipodi:docname="logo.svg"
   inkscape:version="1.0.1 (3bc2e813f5, 2020-09-07)">
  <metadata
     id="metadata45">
    <rdf:RDF>
      <cc:Work
         rdf:about="">
        <dc:format>image/svg+xml</dc:format>
        <dc:type
           rdf:resource="http://purl.org/dc/dcmitype/StillImage" />
      </cc:Work>
    </rdf:RDF>
  </metadata>
  <defs
     id="defs43">
    <rect
       x="159.59189"
       y="170.93757"
       width="213.06606"
       height="258.88711"
       id="rect70" />
  </defs>
  <sodipodi:namedview
     pagecolor="#ffffff"
     bordercolor="#666666"
     borderopacity="1"
     objecttolerance="10"
     gridtolerance="10"
     guidetolerance="10"
     inkscape:pageopacity="0"
     inkscape:pageshadow="2"
     inkscape:window-width="1920"
     inkscape:window-height="1017"
     id="namedview41"
     showgrid="false"
     inkscape:zoom="1.6601562"
     inkscape:cx="254.71521"
     inkscape:cy="195.09068"
     inkscape:window-x="1016"
     inkscape:window-y="297"
     inkscape:window-maximized="1"
     inkscape:current-layer="g38"
     inkscape:document-rotation="0" />
  <g
     id="g38">
    <g
       id="g4"
       style="fill:#292f36;fill-opacity:1">
      <circle
         cx="449.866"
         cy="419.635"
         fill="#475959"
         r="29.422"
         id="circle2"
         style="fill:#292f36;fill-opacity:1" />
    </g>
    <g
       id="g8"
       style="fill:#292f36;fill-opacity:1">
      <circle
         cx="37.92"
         cy="88.83"
         fill="#617881"
         r="25.888"
         id="circle6"
         style="fill:#292f36;fill-opacity:1" />
    </g>
    <g
       id="g12"
       style="fill:#4ecdc4;fill-opacity:1">
      <path
         d="m479.225 189.135c-3.736-3.085-5.54-7.883-4.938-12.691.367-2.935.533-5.932.482-8.977-.559-33.315-27.53-60.739-60.832-61.82-21.736-.705-41.103 9.616-52.932 25.795-3.441 4.707-9.509 6.758-15.099 5.103-7.912-2.342-16.289-3.599-24.961-3.599-10.943 0-21.418 2.002-31.08 5.66-7.483 2.833-15.91-1.256-18.329-8.883-11.512-36.295-45.978-62.372-86.351-61.182-31.416.926-58.794 18.596-73.548 44.292-2.047 3.565-5.925 5.68-10.035 5.603-1.315-.024-2.648.027-3.995.159-16.326 1.597-29.228 15.192-30.043 31.575-.211 4.245.369 8.327 1.607 12.112 1.849 5.654-1.096 11.698-6.591 13.979-37.495 15.566-63.635 52.973-62.547 96.346 1.356 54.025 45.551 97.873 99.584 98.827 14.187.25 27.724-2.412 40.052-7.429 6.996-2.847 15.109.652 18.101 7.587 10.214 23.675 33.765 40.246 61.188 40.246 22.094 0 41.676-10.758 53.793-27.321 4.595-6.281 13.479-7.739 19.702-3.067 12.952 9.724 29.049 15.486 46.491 15.486 29.486 0 55.126-16.465 68.229-40.702 2.558-4.732 7.497-7.613 12.875-7.504.793.016 1.588.022 2.386.017 49.307-.287 89.577-40.813 89.566-90.121-.006-27.973-12.763-52.969-32.775-69.491z"
         fill="#617881"
         id="path10"
         style="fill:#4ecdc4;fill-opacity:1" />
    </g>
    <g
       id="g16"
       style="fill:#292f36;fill-opacity:1">
      <path
         d="m479.225 189.135c-3.736-3.085-5.54-7.883-4.938-12.691.367-2.935.533-5.932.482-8.977-.54-32.189-25.737-58.878-57.477-61.62 9.884 10.941 16.007 25.325 16.27 41.017.051 3.046-.114 6.043-.482 8.977-.602 4.808 1.202 9.606 4.938 12.691 20.012 16.522 32.768 41.518 32.775 69.494.011 49.308-40.259 89.834-89.566 90.121-.798.005-1.593-.001-2.386-.017-5.378-.109-10.317 2.772-12.875 7.504-13.102 24.237-38.743 40.702-68.229 40.702-17.443 0-33.54-5.762-46.492-15.486-6.223-4.673-15.107-3.214-19.702 3.067-12.117 16.563-31.699 27.321-53.793 27.321-2.481 0-4.93-.136-7.34-.401 12.15 12.929 29.405 21.004 48.548 21.004 22.094 0 41.676-10.758 53.793-27.321 4.595-6.281 13.479-7.739 19.702-3.067 12.952 9.724 29.049 15.486 46.492 15.486 29.486 0 55.126-16.465 68.229-40.702 2.558-4.732 7.497-7.613 12.875-7.504.793.016 1.588.022 2.386.017 49.307-.287 89.577-40.813 89.566-90.121-.007-27.976-12.764-52.972-32.776-69.494z"
         fill="#475959"
         id="path14"
         style="fill:#292f36;fill-opacity:1" />
    </g>
    <g
       aria-label="S"
       transform="matrix(1.3249508,0,0,1.3892236,-38.58373,-146.05609)"
       id="text68"
       style="font-style:normal;font-variant:normal;font-weight:600;font-stretch:normal;font-size:192px;line-height:1.25;font-family:Lato;-inkscape-font-specification:'Lato Semi-Bold';word-spacing:0px;white-space:pre;shape-inside:url(#rect70);fill:#f7fff7;fill-opacity:1">
      <path
         d="m 248.2958,234.8735 q -1.056,1.728 -2.208,2.592 -1.152,0.768 -2.88,0.768 -1.824,0 -4.128,-1.536 -2.208,-1.536 -5.568,-3.36 -3.264,-1.92 -7.776,-3.456 -4.512,-1.632 -10.752,-1.632 -5.76,0 -10.176,1.44 -4.32,1.44 -7.296,4.032 -2.976,2.592 -4.512,6.144 -1.44,3.456 -1.44,7.584 0,5.28 2.784,8.832 2.784,3.456 7.296,5.952 4.608,2.496 10.464,4.416 5.856,1.824 11.904,3.936 6.144,2.112 12,4.8 5.856,2.688 10.368,6.816 4.608,4.128 7.392,10.08 2.784,5.952 2.784,14.496 0,9.216 -3.168,17.28 -3.168,8.064 -9.216,14.112 -5.952,5.952 -14.784,9.408 -8.736,3.456 -19.968,3.456 -6.624,0 -12.96,-1.344 -6.24,-1.248 -12,-3.552 -5.664,-2.4 -10.656,-5.76 -4.992,-3.36 -8.928,-7.488 l 6.528,-10.752 q 0.864,-1.344 2.208,-2.112 1.344,-0.768 2.976,-0.768 2.208,0 4.896,2.112 2.688,2.016 6.432,4.512 3.84,2.4 9.216,4.512 5.376,2.016 12.864,2.016 12.192,0 18.816,-5.952 6.72,-5.952 6.72,-16.416 0,-5.856 -2.784,-9.504 -2.784,-3.744 -7.392,-6.24 -4.512,-2.496 -10.368,-4.224 -5.856,-1.728 -11.904,-3.648 -6.048,-2.016 -11.904,-4.608 -5.856,-2.688 -10.464,-6.912 -4.512,-4.32 -7.296,-10.56 -2.784,-6.336 -2.784,-15.744 0,-7.488 2.88,-14.496 2.976,-7.008 8.544,-12.384 5.664,-5.472 13.92,-8.736 8.256,-3.264 18.816,-3.264 11.904,0 21.792,3.744 9.984,3.744 17.184,10.656 z"
         style="font-style:normal;font-variant:normal;font-weight:600;font-stretch:normal;font-size:192px;font-family:Lato;-inkscape-font-specification:'Lato Semi-Bold';fill:#f7fff7;fill-opacity:1"
         id="path844" />
    </g>
  </g>
</svg>
